<?xml version="1.0" encoding="utf-8"?>
<!-- Generator: Adobe Illustrator 19.0.0, SVG Export Plug-In . SVG Version: 6.00 Build 0)  -->
<svg version="1.1" id="Capa_1" xmlns="http://www.w3.org/2000/svg" xmlns:xlink="http://www.w3.org/1999/xlink" x="0px" y="0px"
	 viewBox="-328 323.8 181 160.1" style="enable-background:new -328 323.8 181 160.1;" xml:space="preserve">
<style type="text/css">
	.st0{fill:#747474;}
</style>
<g>
	<path class="st0" d="M-150.7,376.9l-0.3-0.3c-0.4-0.4-1.1-1-2.2-1h-69l-0.3-1.7c-0.7-4.6-4.7-8-9.4-8h-7c-1.7,0-2.9,1.3-2.9,2.9
		s1.3,2.9,2.9,2.9h7.1c1.8,0,3.3,1.3,3.6,3l6,36.1c0,0.3,0.1,0.6,0.2,0.8l1,6.2c0.9,5.5,5.8,9.6,11.3,9.6h46.4
		c1.7,0,2.9-1.3,2.9-2.9s-1.3-2.9-2.9-2.9h-46.5c-2.8,0-5.1-2-5.5-4.6l-0.6-3.3h54c0.6,0.1,1.1,0.1,1.6-0.2c0.7-0.4,1.3-1.1,1.5-1.9
		l8.4-32.1C-150,378.6-150.2,377.7-150.7,376.9z M-156.8,381.6l-7,26.4h-53l-4.3-26.4H-156.8z"/>
	<path class="st0" d="M-208.9,430.2c-5.4,0-9.8,4.4-9.8,9.8s4.4,9.8,9.8,9.8c5.4,0,9.8-4.4,9.8-9.8S-203.5,430.2-208.9,430.2z
		 M-208.9,436.1c2.2,0,3.8,1.7,3.8,3.9c0,2.1-1.8,3.9-3.9,3.9s-3.8-1.8-3.8-3.9S-211.1,436.1-208.9,436.1z"/>
	<path class="st0" d="M-176.5,430.2c-5.4,0-9.8,4.4-9.8,9.8s4.3,9.9,9.8,9.9s9.8-4.4,9.8-9.8C-166.7,434.7-171.1,430.2-176.5,430.2z
		 M-176.6,436.1c2.2,0,3.9,1.7,3.9,3.9c0,2.1-1.8,3.9-3.9,3.9c-2.1,0-3.9-1.8-3.9-3.9C-180.6,437.9-178.8,436.1-176.6,436.1z"/>
</g>
<g transform="translate(0,-952.36218)">
	<path class="st0" d="M-259.5,1287.9c1.3,0,2.5,0.6,3.2,1.9c2.4,4.3-6.5,7.4-7.5,11.2c-0.6,2.4,0.3,5.2,0.3,5.2
		c0.3,0.9,0.4,1.1,1.1,1c4.7-1.4,9.9-4.4,15.6-3c0.3,0.1,0.4,0.1,0.7-0.2c1.8-2.7,5.2,1.5,1.7,3.4c-0.2,0.2-0.4,0.5-0.4,0.9
		c-0.1,3.6-0.2,6.9-1.1,10.3h0c-3,1.8-5.8,4.4-9.5,4.8c-1.3,0.3-1.1,1.9,0.2,1.9c2.6-0.3,5.9-2.1,8.5-4c-0.4,1.1-1.2,2.4-1.7,2.9
		c-4.3,3.2-9.3,3.6-16.4,5.4c-1.2,0.4-0.8,2.4,0.6,1.7c0.9-0.3,1.9-0.6,2.8-0.7c4.3,7.4,1.5,20.1,1.1,28.9
		c-1.2,10.6-1.9,25.9,5.8,32c2.4,1.6,7.3,5.8,5.3,8.4c-1.6,2.3-5.3,2.2-8.5,2.3c-5.8-0.7-10-8.6-10.2-17.5c-0.1-2.3-0.1-4.2-0.1-6.9
		c-0.1-1.7-1.6-1.6-1.7-0.1c0,0,0,2.5,0.1,4.2c-1.5-0.1-2.8,0.3-4.3,1.1c0.5-1.9,1-4.1,0.8-5.9c-0.5-3.7-3-7-4.8-10.1
		c-0.8-1.2-2.3-0.3-1.3,1.2c1.9,3,4.5,6.9,4.4,9.1c0,3-1,6.3-2,9.2c-0.8,2.6,2.1,2.4,2.2-1.2c1-0.7,2.4-1.5,3.7-1.6
		c1.5-0.2,1.1-0.1,1.4,1c0.1,2.3,0.2,5,1,7.3c-13.1,0.4-33.7,1.8-42.4-11.8c-2.5-5.1-3.5-11.8-2.6-18c0.8-5,6.4-3.5,6.2,1.9
		c-0.1,4.3,0.6,11.8,3.7,13.9c2.7,2,6.9,1.9,10.9,1.7c0.3-0.2,0.5-0.7,0.4-1.1c-2.1-10.5-3.5-20-1.7-30.7
		c3.1-8.9,10.2-15.4,17.7-22.9c0.6,0.5,1.3,1.1,2.5,2c0.6,0.3,1.5-0.8,1-1.6c-3.3-1.8-5-5.1-3.8-10.9c1.2-0.9,2.4-1.9,2.4-1.9
		c1.1-0.7-0.1-2.5-0.9-1.6c-0.9,0.7-2,1.7-3,2.4c-1.6,1.1-3.6,2-4.6,1.7c-3.7-1.3-2.9-5.9-0.7-8.9c3.9-5,10.3-5.4,15.3-0.8
		c1.6,3.3,1.2,7,0.9,10.8c0,1.3,1.5,1.5,1.7,0c0.4-3.8,0.7-8.4-1.4-12.1c-1.2-1.5-2.7-2.5-4.5-3.2c0.2-1.8,0.6-3.4,1.3-5.2
		C-269,1292.9-263.4,1287.9-259.5,1287.9L-259.5,1287.9z M-261.2,1309.5c-0.3,0-0.6,0-1,0.2c-0.9,0.5-1.2,1.7-0.8,2.7
		c0.4,1,1.5,1.4,2.3,0.9c0.9-0.5,1.2-1.7,0.8-2.6C-260.2,1310-260.7,1309.6-261.2,1309.5z M-235.1,1328.7c4,0,7.8,0.8,9,3.9
		c0.7,3.1-5.1,4.8-7.4,5.3c-2.5,0.1-5-1-7.1-2.6c-0.2-0.2-0.6-0.2-0.8-0.1l-15.7,7.6c0-3.1-0.2-6.2-1.2-9.7c0.1,0,11-3.5,16.4-3.9
		C-239.9,1328.9-237.4,1328.7-235.1,1328.7L-235.1,1328.7z"/>
</g>
</svg>
