<?xml version="1.0" encoding="utf-8"?>
<!-- Generator: Adobe Illustrator 19.0.0, SVG Export Plug-In . SVG Version: 6.00 Build 0)  -->
<svg version="1.1" id="Capa_1" xmlns="http://www.w3.org/2000/svg" xmlns:xlink="http://www.w3.org/1999/xlink" x="0px" y="0px"
	 viewBox="-252 375.9 90 90" style="enable-background:new -252 375.9 90 90;" xml:space="preserve">
<style type="text/css">
	.st0{fill:#488CFB;}
</style>
<path class="st0" d="M-184.6,400.3c0.5,0,0.9,0,1.4,0c0.5,0,0.9,0.1,1.3,0.1c0.4,0,0.8,0.1,1.2,0.2c0.4,0.1,0.7,0.1,1,0.2
	c0.3,0.1,0.5,0.2,0.7,0.2c0.4,0.1,0.6,0.2,0.6,0.2s-0.2-0.1-0.6-0.3c-0.2-0.1-0.4-0.2-0.7-0.3c-0.3-0.1-0.6-0.2-1-0.3
	c-0.3-0.1-0.7-0.2-1.1-0.3c-0.4-0.1-0.8-0.2-1.3-0.3c-0.5-0.1-0.9-0.2-1.4-0.2c-0.5-0.1-1-0.1-1.5-0.1c-0.3,0-0.7,0-1,0
	c-0.3-2.3-1.1-4.4-2.3-6.1c0,0,1.1-7.2-1.4-14.2c-0.4-1-6.5,8.9-6.5,8.9c-0.8-0.2-1.6-0.3-2.5-0.3c-1.5,0-3,0.3-4.3,0.8
	c0,0-4.8-8.8-5.8-6.5c-2.8,6.8-2.1,15.2-2.1,15.2c-0.4,1.2-0.6,2.6-0.6,3.9c0,0,0,0.1,0,0.1c-0.5,0-0.9,0.1-1.4,0.1
	c-0.5,0-0.9,0.1-1.3,0.2c-0.4,0.1-0.8,0.2-1.2,0.3c-0.4,0.1-0.7,0.2-1.1,0.3c-0.7,0.2-1.2,0.4-1.5,0.6c-0.4,0.2-0.6,0.3-0.6,0.3
	s0.2-0.1,0.6-0.2c0.4-0.1,0.9-0.3,1.6-0.4c0.3-0.1,0.7-0.1,1.1-0.2c0.4-0.1,0.8-0.1,1.2-0.1c0.4,0,0.9-0.1,1.3,0
	c0.4,0,0.9,0,1.3,0.1c0,0,0,0,0,0c0,0.3,0.1,0.7,0.1,1c0,0-0.1,0-0.1,0c-0.9,0.3-1.8,0.6-2.6,1c-0.4,0.2-0.8,0.4-1.1,0.6
	c-0.4,0.2-0.7,0.4-1,0.6c-0.6,0.4-1.1,0.7-1.4,1c-0.3,0.2-0.5,0.4-0.5,0.4s0.2-0.1,0.5-0.3c0.3-0.2,0.8-0.5,1.5-0.8
	c0.3-0.2,0.6-0.3,1-0.4c0.4-0.1,0.7-0.3,1.2-0.4c0.8-0.3,1.7-0.5,2.6-0.6c0,0,0,0,0,0c0.2,0.9,0.5,1.8,0.8,2.6
	c-8.7,2.3-15.3,10.9-16.2,21.5c-4.9,2.7-9.7,8-7.5,18.5c1.5,7,15.7,16.1,22.6,16.3c2.2,0.1,2.6-2.1,2.3-3
	c-1.8-6.2-14.2-4.8-19.7-15.7c-1.8-3.6-0.2-7.5,2.3-10.9c1.1,12,9.5,21.4,19.9,22c1.3,1.3,3.1,2.2,5.2,2.2c2.8,0,5.1-1.5,6.3-3.7
	c1.1,0.6,2.3,1,3.6,1c3.9,0,7-3,7-6.7c0-1.8-0.7-3.4-1.9-4.6c0.1-1,0.2-2,0.3-3.1c1.1-3,1.7-6.2,1.7-9.6c0-7.3-2.7-13.9-7.1-18.4
	c3.2-2.2,5.4-5.8,5.8-10c0.2,0.1,0.5,0.1,0.7,0.2c0.5,0.1,0.9,0.2,1.4,0.4c0.5,0.1,0.9,0.3,1.3,0.5c0.4,0.2,0.8,0.3,1.2,0.5
	c0.4,0.2,0.7,0.4,1,0.5c0.3,0.2,0.6,0.4,0.9,0.5c0.2,0.2,0.5,0.3,0.6,0.4c0.3,0.2,0.5,0.4,0.5,0.4s-0.2-0.2-0.5-0.4
	c-0.2-0.1-0.4-0.3-0.6-0.5c-0.2-0.2-0.5-0.4-0.8-0.6c-0.3-0.2-0.6-0.5-1-0.7c-0.4-0.2-0.7-0.5-1.1-0.7c-0.4-0.2-0.8-0.5-1.3-0.7
	c-0.4-0.2-0.9-0.4-1.4-0.6c-0.3-0.1-0.6-0.2-1-0.3c0,0,0,0,0-0.1c0-0.2,0-0.4,0-0.6c0.3,0,0.6-0.1,0.9-0.1
	C-185.5,400.3-185,400.3-184.6,400.3z"/>
</svg>
