<?xml version="1.0" encoding="utf-8"?>
<!-- Generator: Adobe Illustrator 19.0.0, SVG Export Plug-In . SVG Version: 6.00 Build 0)  -->
<svg version="1.1" id="Capa_1" xmlns="http://www.w3.org/2000/svg" xmlns:xlink="http://www.w3.org/1999/xlink" x="0px" y="0px"
	 viewBox="-236 358.9 89 100.9" style="enable-background:new -236 358.9 89 100.9;" xml:space="preserve">
<style type="text/css">
	.st0{fill:#488CFB;}
</style>
<g>
	<path class="st0" d="M-168.3,371.9c-0.8-3.8,0-6.9-1.5-6.1c-0.6,0.3-1.6,2.4-1.5,4.3c0.1,3.3-1,3.2-3.7,2.4
		c-5.4-1.8-2.2-9.3-3.4-8.7c-1.3,0.6-2.8,6.2-2.8,6.2s-3.2,8.9-0.4,15c1.2,2.7,0.1,0.6,1.4,3.7c5.7,13.7,0.3,8.1-9.4,16.5
		c-4.7,4.1-5.7,15.7-3.9,26.5c2.1,12.9,1.9,18.5,1.7,18.5c0,0-11.7-2-13-12c-1.3-9.9,1.9-13.4-1.5-25.1
		c-3.5-11.7-23.6-20.8-24.2-16.3c-0.6,4.6,1.3,6.6,8.8,7.6c20.7,2.9,11.1,26.6,11.3,32.5c0.3,10.4,10.9,17.8,19.1,16.7h27
		c0.3-0.4-1-0.8-1.9-2c-4.6-4.1,0.1-15.1,1.1-31.6c0.3-4.8-0.4-10-2.2-16.7c-3.1-12-3.4-12.3,0.4-15.6c0.9-0.8,3.2-2.3,3.5-4.2
		c0.6-3.9-0.1-1.8-0.3-4.8C-164,375.3-167.8,374-168.3,371.9L-168.3,371.9z"/>
</g>
</svg>
