<?xml version="1.0" encoding="utf-8"?>
<!-- Generator: Adobe Illustrator 19.0.0, SVG Export Plug-In . SVG Version: 6.00 Build 0)  -->
<svg version="1.1" id="Capa_1" xmlns="http://www.w3.org/2000/svg" xmlns:xlink="http://www.w3.org/1999/xlink" x="0px" y="0px"
	 viewBox="-247 358.9 100 92.9" style="enable-background:new -247 358.9 100 92.9;" xml:space="preserve">
<style type="text/css">
	.st0{fill:#488CFB;}
</style>
<path class="st0" d="M-205.8,403h-20l-7.3-7.3c-2-2-5.3-2-7.3,0c-2,2-2,5.3,0,7.3l7.8,7.8v29.5c0,2.9,2.3,5.2,5.2,5.2
	c2.9,0,5.2-2.3,5.2-5.2v-12.8h30.7v12.8c0,2.9,2.3,5.2,5.2,5.2s5.2-2.3,5.2-5.2v-19.6c0-2.1,0.5-3.8,1.1-5.2l-16.9-16.9
	C-199.9,401.1-202.8,403-205.8,403z"/>
<path class="st0" d="M-154.5,393.3c-1.3-0.9-3.4-1.4-5-1.3c-0.9-6.2-4.3-8.9-7.9-10.2c-0.7-4.8-2.8-9.5-5.4-9.5
	c-2.7,0-4.8,4.7-5.5,9.6c-4.6,1.7-8.2,5.5-11.6,9.2c-1.4,1.6-2.9,3.3-4.5,4.9l16.5,16.5c0.3-0.2,0.5-0.4,0.8-0.6
	c6.4-4.7,16,0.2,22-5.3C-151.8,403.6-150.4,396.3-154.5,393.3z"/>
</svg>
