<?xml version="1.0" encoding="utf-8"?>
<!-- Generator: Adobe Illustrator 19.0.0, SVG Export Plug-In . SVG Version: 6.00 Build 0)  -->
<svg version="1.1" id="Capa_1" xmlns="http://www.w3.org/2000/svg" xmlns:xlink="http://www.w3.org/1999/xlink" x="0px" y="0px"
	 viewBox="-247 358.9 100 100.9" style="enable-background:new -247 358.9 100 100.9;" xml:space="preserve">
<style type="text/css">
	.st0{fill:#488CFB;}
</style>
<g>
	<path class="st0" d="M-155.4,401l-0.1,0.1c-0.2,0.2-0.5,0.4-1.1,0.4c-2.4-0.3-8.3-5.9-11.7-11c1.2,14.3-0.3,19.5-1.7,24
		c-1.8,6-3.3,11.2,1.3,34.7c0,0.4,0.1,1.1-1.4,1.5c-1.2,0.4-3.8,0.6-6.5,0.6c-3.7,0-8.5-0.4-8.9-1.1c-1.4-1.1-2.1-8.1-1.9-19
		c0-2,0.1-4.1,0.1-6.4c-0.4,0.2-1,0.4-1.7,0.5c-5.9,0.7-20.4-4.5-24-8.9c-1.9,11.1-6.9,16.2-11,20.5c-3.6,3.7-6.4,6.6-6.1,12.1v0.1
		v0.1c-0.3,1.6-5.5,1.8-7.7,1.8c-2.8,0-7.6-0.2-8-1.9V449c-0.4-4.4,10.2-27,13.5-34c1.4-7.7,3.5-16.8,7.1-22.2c0-1.4-0.1-2.2-0.2-3
		c-0.1-1.3-0.2-2.6,0.2-3.3c0.3-0.6,1.1-0.8,1.7-0.6c1.1,0.3,2.4,2.7,3.5,5.6c5.7,1.6,11.6,3,17.6,3c5.6,0,11.2-1.2,16.7-4.6
		c0.5-0.6,3-4.9,5.4-9c1.5-2.5,3.1-5.3,4.5-7.6c1.3-3,2.5-5.6,4.4-6.2c0.8-0.3,1.6-0.2,2.5,0.3l-0.1,0l2,1.8l2.2-1.8
		c0.9-0.8,1.8-1,2.5-0.7c1.1,0.4,1.8,1.9,2.1,4.6c1.1,0.8,5.6,3.9,6.4,4.5c0.1,0.1,0.3,0.5,0.2,0.6c0,0.3,0.1,0.6-2.6,2.4l7.6,5.2
		C-147.8,384.2-147,384.7-155.4,401z"/>
</g>
</svg>
