<?xml version="1.0" encoding="utf-8"?>
<!-- Generator: Adobe Illustrator 19.0.0, SVG Export Plug-In . SVG Version: 6.00 Build 0)  -->
<svg version="1.1" id="Capa_1" xmlns="http://www.w3.org/2000/svg" xmlns:xlink="http://www.w3.org/1999/xlink" x="0px" y="0px"
	 viewBox="-247 358.9 100 125" style="enable-background:new -247 358.9 100 125;" xml:space="preserve">
<style type="text/css">
	.st0{display:none;}
	.st1{display:inline;fill:#9ACBCC;}
	.st2{fill:#FFFFFF;}
</style>
<g class="st0">
	<rect x="-988" y="-698.1" class="st1" width="1388" height="1432"/>
</g>
<g>
	<path class="st2" d="M-237.8,423.4c0,5.4,4.4,9.9,9.9,9.9s9.9-4.4,9.9-9.9c0-5.4-4.4-9.9-9.9-9.9S-237.8,417.9-237.8,423.4z
		 M-222.1,423.4c0,3.2-2.6,5.9-5.9,5.9c-3.2,0-5.9-2.6-5.9-5.9s2.6-5.9,5.9-5.9C-224.7,417.5-222.1,420.1-222.1,423.4z"/>
	<path class="st2" d="M-217.1,453.7c2.1,0,3.7-2,3.2-4l-2.2-10.3c-0.5-2.1-2.4-3.6-4.5-3.6h-14.5c-2.2,0-4,1.5-4.5,3.6l-2.2,10.3
		c-0.5,2.1,1.1,4,3.2,4H-217.1z M-235.8,440.3c0.1-0.3,0.3-0.5,0.7-0.5h14.5c0.3,0,0.6,0.2,0.7,0.5l2,9.5h-19.8L-235.8,440.3z"/>
	<path class="st2" d="M-183.5,364.1c-17.4,0-31.5,14.1-31.5,31.5c0,5.6,1.5,11.1,4.3,15.9l-2,5.2l-2.3,6.2l6.6-0.8l6.6-0.8
		c5.3,3.8,11.8,5.9,18.3,5.9c17.4,0,31.5-14.1,31.5-31.5C-152,378.2-166.1,364.1-183.5,364.1z M-183.5,423.1
		c-6.5,0-12.5-2.3-17.2-6.1l-8.2,1l2.7-7.1c-3-4.4-4.7-9.7-4.7-15.4c0-15.2,12.3-27.5,27.5-27.5s27.5,12.3,27.5,27.5
		C-156,410.8-168.3,423.1-183.5,423.1z"/>
	<path class="st2" d="M-177,382.8c-0.9-0.6-1.9-1.1-3-1.4c-1.2-0.3-2.4-0.4-3.7-0.4c-1.4,0-2.8,0.2-4.1,0.5
		c-1.3,0.3-2.5,0.8-3.6,1.5v6.5c1.1-1,2.2-1.7,3.4-2.1c1.2-0.5,2.4-0.7,3.5-0.7c0.5,0,1,0.1,1.4,0.2c0.4,0.2,0.8,0.4,1.1,0.6
		c0.3,0.3,0.5,0.6,0.7,1c0.2,0.4,0.2,0.8,0.2,1.2c0,0.5-0.1,1-0.2,1.4c-0.1,0.4-0.4,0.8-0.6,1.2c-0.3,0.4-0.6,0.8-1.1,1.2
		s-0.9,0.8-1.4,1.3c-0.5,0.4-1,0.9-1.4,1.3c-0.4,0.4-0.7,0.9-1,1.4s-0.5,1-0.6,1.5c-0.1,0.5-0.2,1.2-0.2,1.8c0,0.4,0,0.9,0.1,1.3
		s0.2,0.9,0.3,1.3h5.7c-0.2-0.2-0.3-0.5-0.4-0.9c-0.1-0.4-0.1-0.7-0.1-1.1c0-0.5,0.1-1,0.2-1.4c0.1-0.4,0.3-0.8,0.6-1.1
		c0.3-0.4,0.6-0.7,1-1.1s0.8-0.8,1.3-1.2c0.8-0.6,1.4-1.2,2-1.8c0.6-0.6,1.1-1.2,1.5-1.8c0.4-0.6,0.7-1.3,0.9-2
		c0.2-0.7,0.3-1.5,0.3-2.4c0-1.4-0.2-2.6-0.7-3.6S-176.1,383.5-177,382.8z"/>
	<path class="st2" d="M-183.9,405.9c-1.2,0-2.1,0.3-2.9,1c-0.8,0.7-1.1,1.5-1.1,2.5c0,1,0.4,1.8,1.1,2.6c0.8,0.7,1.7,1,2.9,1
		s2.1-0.3,2.9-1c0.7-0.7,1.1-1.5,1.1-2.6c0-1-0.4-1.9-1.1-2.5C-181.8,406.3-182.8,405.9-183.9,405.9z"/>
</g>
</svg>
