<?xml version="1.0" encoding="utf-8"?>
<!-- Generator: Adobe Illustrator 19.0.0, SVG Export Plug-In . SVG Version: 6.00 Build 0)  -->
<svg version="1.1" id="Capa_1" xmlns="http://www.w3.org/2000/svg" xmlns:xlink="http://www.w3.org/1999/xlink" x="0px" y="0px"
	 viewBox="-261 375.9 72 90" style="enable-background:new -261 375.9 72 90;" xml:space="preserve">
<style type="text/css">
	.st0{fill:#747474;}
</style>
<g>
	<path class="st0" d="M-193.8,443.1v-33.9c0-0.4-0.4-0.7-0.8-0.6c-1.1,0.4-2.2,0.6-3.3,0.6c-1.9,0-3.6-0.5-5.1-1.4
		c-0.2-0.1-0.4-0.1-0.6,0c-1.5,0.9-3.3,1.4-5.1,1.4c-1.9,0-3.6-0.5-5.1-1.4c-0.2-0.1-0.4-0.1-0.6,0c-1.5,0.9-3.3,1.4-5.1,1.4
		c-1.9,0-3.6-0.5-5.1-1.4c-0.2-0.1-0.4-0.1-0.6,0c-1.5,0.9-3.3,1.4-5.1,1.4c-1.9,0-3.6-0.5-5.1-1.4c-0.2-0.1-0.4-0.1-0.6,0
		c-1.5,0.9-3.3,1.4-5.1,1.4c-1.9,0-3.6-0.5-5.1-1.4c-0.2-0.1-0.4-0.1-0.6,0c-1.5,0.9-3.3,1.4-5.1,1.4c-1.2,0-2.3-0.2-3.3-0.6
		c-0.4-0.1-0.8,0.2-0.8,0.6v33.9c0,0.3-0.3,0.6-0.6,0.6h-2.8c-0.3,0-0.6,0.3-0.6,0.6v2c0,0.3,0.3,0.6,0.6,0.6h68.8
		c0.3,0,0.6-0.3,0.6-0.6v-2c0-0.3-0.3-0.6-0.6-0.6h-2.6C-193.5,443.7-193.8,443.5-193.8,443.1z M-230.2,443.4h-17.7
		c-0.3,0-0.6-0.3-0.6-0.6v-27c0-0.3,0.3-0.6,0.6-0.6h17.7c0.3,0,0.6,0.3,0.6,0.6v27.1C-229.6,443.2-229.8,443.4-230.2,443.4z
		 M-202.1,429.9h-17.7c-0.3,0-0.6-0.3-0.6-0.6v-11.6c0-0.3,0.3-0.6,0.6-0.6h17.7c0.3,0,0.6,0.3,0.6,0.6v11.6
		C-201.5,429.6-201.8,429.9-202.1,429.9z"/>
	<path class="st0" d="M-190.6,390.8l-9-13.7c-0.2-0.1-0.4-0.2-0.6-0.2l-49.1,0.3c-0.2,0-0.4,0.1-0.5,0.3l-9.5,13.3
		c-0.3,0.4,0,0.9,0.5,0.9h0.6c0.4,0,0.8,0.3,0.8,0.8v6c0,3.1,2.4,5.7,5.4,5.7c2.5,0,4.6-1.8,5.2-4.3c0-0.1,0.1-0.1,0.2-0.1l0,0
		c0.1,0,0.2,0.1,0.2,0.1c0.6,2.4,2.7,4.3,5.2,4.3l0,0c2.5,0,4.6-1.8,5.2-4.3c0-0.1,0.1-0.1,0.2-0.1l0,0c0.1,0,0.2,0.1,0.2,0.1
		c0.6,2.4,2.7,4.3,5.2,4.3s4.6-1.8,5.2-4.3c0-0.1,0.1-0.1,0.2-0.1l0,0c0.1,0,0.2,0.1,0.2,0.1c0.6,2.4,2.7,4.3,5.2,4.3
		s4.6-1.8,5.2-4.3c0-0.1,0.1-0.1,0.2-0.1l0,0c0.1,0,0.2,0.1,0.2,0.1c0.6,2.4,2.7,4.3,5.2,4.3l0,0c2.5,0,4.6-1.8,5.2-4.3
		c0-0.1,0.1-0.1,0.2-0.1l0,0c0.1,0,0.2,0.1,0.2,0.1c0.6,2.4,2.7,4.3,5.2,4.3c3,0,5.4-2.5,5.4-5.7v-6c0-0.4,0.3-0.8,0.8-0.8h0.7
		C-190.7,391.7-190.4,391.2-190.6,390.8z"/>
</g>
</svg>
