<?xml version="1.0" encoding="utf-8"?>
<!-- Generator: Adobe Illustrator 19.0.0, SVG Export Plug-In . SVG Version: 6.00 Build 0)  -->
<svg version="1.1" id="Capa_1" xmlns="http://www.w3.org/2000/svg" xmlns:xlink="http://www.w3.org/1999/xlink" x="0px" y="0px"
	 viewBox="-247 358.9 100 125" style="enable-background:new -247 358.9 100 125;" xml:space="preserve">
<style type="text/css">
	.st0{fill:#747474;}
</style>
<g transform="translate(0,-952.36218)">
	<path class="st0" d="M-205,1318.2c-3.4,0-6,1.8-7.6,4h-4.4c-1.7,0-3,1.4-3,3c0,0.1,0,0.2,0,0.3l0.1,0.7H-232c-0.1,0-0.2,0-0.3,0
		c-1.5,0.2-2.7,1.5-2.7,3v60c0,1.7,1.3,3,3,3h36c1.7,0,3-1.3,3-3s-1.3-3-3-3c0,0-0.1,0-0.1,0h-33v-54h9.9l0.2,1.3
		c0.2,1.5,1.4,2.7,3,2.7h22c1.5,0,2.8-1.1,3-2.7l0.2-1.3h9.9v35c0,1.7,1.3,3,3,3c1.7,0,3-1.3,3-3c0,0,0-0.1,0-0.1v-38
		c0-1.7-1.3-3-3-3h-12.1l0.1-0.7c0.2-1.6-1-3.1-2.6-3.3c-0.1,0-0.2,0-0.3,0h-4.4C-199,1320-201.6,1318.2-205,1318.2L-205,1318.2z
		 M-205,1324.2c1.3,0,2.8,1.2,3.3,2.3c0.5,1,1.6,1.7,2.7,1.7h2.6l-0.3,2h-16.8l-0.3-2h2.6c1.1,0,2.2-0.6,2.7-1.7
		C-207.7,1325.5-206.3,1324.2-205,1324.2z M-175,1372.3c-4.1,0-8.2,1.5-11.3,4.7c-6.2,6.2-6.2,16.4,0,22.6c6.2,6.2,16.4,6.2,22.6,0
		c6.2-6.2,6.2-16.4,0-22.6C-166.8,1373.8-170.9,1372.3-175,1372.3z M-175,1378.2c2.6,0,5.1,1,7.1,2.9c3.9,3.9,3.9,10.2,0,14.2
		c-3.9,3.9-10.3,3.9-14.2,0s-3.9-10.2,0-14.2C-180.1,1379.2-177.5,1378.2-175,1378.2L-175,1378.2z M-175,1379.2c-1.7,0-3,1.4-3,3
		c0,0,0,0,0,0v3h-2c-1.7,0-3,1.3-3,3c0,1.7,1.3,3,3,3c0,0,0.1,0,0.1,0h5c1.7,0,3-1.3,3-3v-6C-171.9,1380.6-173.3,1379.2-175,1379.2
		C-175,1379.2-175,1379.2-175,1379.2L-175,1379.2z"/>
</g>
</svg>
