<?xml version="1.0" encoding="utf-8"?>
<!-- Generator: Adobe Illustrator 22.0.1, SVG Export Plug-In . SVG Version: 6.00 Build 0)  -->
<svg version="1.1" id="Capa_1" xmlns="http://www.w3.org/2000/svg" xmlns:xlink="http://www.w3.org/1999/xlink" x="0px" y="0px"
	 viewBox="0 0 48 60" style="enable-background:new 0 0 48 60;" xml:space="preserve">
<style type="text/css">
	.st0{fill:#D61755;}
</style>
<g>
	<path class="st0" d="M11,26C4.9,26,0,30.9,0,37s4.9,11,11,11s11-4.9,11-11S17.1,26,11,26z M11,46c-5,0-9-4-9-9s4-9,9-9s9,4,9,9
		S16,46,11,46z"/>
	<path class="st0" d="M10,37H6v2h5c0.6,0,1-0.4,1-1v-6h-2V37z"/>
	<path class="st0" d="M46,4h-4V2c0-1.1-0.9-2-2-2h-2c-1.1,0-2,0.9-2,2v2H14V2c0-1.1-0.9-2-2-2h-2C8.9,0,8,0.9,8,2v2H4
		C2.9,4,2,4.9,2,6v20h2V12h35.7H40v-2h-0.3H4V6h4c0,1.1,0.9,2,2,2h2c1.1,0,2-0.9,2-2h22c0,1.1,0.9,2,2,2h2c1.1,0,2-0.9,2-2h4v4h-4v2
		h4v30H23v2h23c1.1,0,2-0.9,2-2V6C48,4.9,47.1,4,46,4z M10,6V2h2l0,4H10z M38,6V2h2l0,4H38z"/>
	<path class="st0" d="M12,22c1.1,0,2-0.9,2-2v-2c0-1.1-0.9-2-2-2H8c-1.1,0-2,0.9-2,2v2c0,1.1,0.9,2,2,2H12z M8,18h4l0,2H8V18z"/>
	<path class="st0" d="M24,20v-2c0-1.1-0.9-2-2-2h-4c-1.1,0-2,0.9-2,2v2c0,1.1,0.9,2,2,2h4C23.1,22,24,21.1,24,20z M18,20v-2h4l0,2
		H18z"/>
	<path class="st0" d="M28,22h4c1.1,0,2-0.9,2-2v-2c0-1.1-0.9-2-2-2h-4c-1.1,0-2,0.9-2,2v2C26,21.1,26.9,22,28,22z M28,18h4l0,2h-4
		V18z"/>
	<path class="st0" d="M38,22h4c1.1,0,2-0.9,2-2v-2c0-1.1-0.9-2-2-2h-4c-1.1,0-2,0.9-2,2v2C36,21.1,36.9,22,38,22z M38,18h4l0,2h-4
		V18z"/>
	<path class="st0" d="M26,28c0,1.1,0.9,2,2,2h4c1.1,0,2-0.9,2-2v-2c0-1.1-0.9-2-2-2h-4c-1.1,0-2,0.9-2,2V28z M28,26h4l0,2h-4V26z"/>
	<path class="st0" d="M36,28c0,1.1,0.9,2,2,2h4c1.1,0,2-0.9,2-2v-2c0-1.1-0.9-2-2-2h-4c-1.1,0-2,0.9-2,2V28z M38,26h4l0,2h-4V26z"/>
	<path class="st0" d="M26,36c0,1.1,0.9,2,2,2h4c1.1,0,2-0.9,2-2v-2c0-1.1-0.9-2-2-2h-4c-1.1,0-2,0.9-2,2V36z M28,34h4l0,2h-4V34z"/>
	<path class="st0" d="M36,36c0,1.1,0.9,2,2,2h4c1.1,0,2-0.9,2-2v-2c0-1.1-0.9-2-2-2h-4c-1.1,0-2,0.9-2,2V36z M38,34h4l0,2h-4V34z"/>
</g>
</svg>
