<?xml version="1.0" encoding="utf-8"?>
<!-- Generator: Adobe Illustrator 22.0.1, SVG Export Plug-In . SVG Version: 6.00 Build 0)  -->
<svg version="1.1" id="Capa_1" xmlns="http://www.w3.org/2000/svg" xmlns:xlink="http://www.w3.org/1999/xlink" x="0px" y="0px"
	 viewBox="0 0 100 125" style="enable-background:new 0 0 100 125;" xml:space="preserve">
<style type="text/css">
	.st0{fill:#D61755;}
</style>
<g transform="translate(0,-952.36218)">
	<path class="st0" d="M50,966.4c-19.8,0-36,16.2-36,36s16.2,36,36,36s36-16.2,36-36S69.8,966.4,50,966.4z M50,972.4
		c16.6,0,30,13.4,30,30s-13.4,30-30,30s-30-13.4-30-30C20,985.8,33.4,972.4,50,972.4z M50,978.4c-1.7,0-3,1.3-3,3v21
		c0,1.7,1.3,3,3,3h19c1.7,0,3-1.3,3-3c0-1.7-1.3-3-3-3H53v-18C53,979.7,51.7,978.4,50,978.4z"/>
</g>
</svg>
