<?xml version="1.0" encoding="utf-8"?>
<!-- Generator: Adobe Illustrator 22.0.1, SVG Export Plug-In . SVG Version: 6.00 Build 0)  -->
<svg version="1.1" id="Capa_1" xmlns="http://www.w3.org/2000/svg" xmlns:xlink="http://www.w3.org/1999/xlink" x="0px" y="0px"
	 viewBox="0 0 90 112.5" style="enable-background:new 0 0 90 112.5;" xml:space="preserve">
<style type="text/css">
	.st0{fill:#8702B3;}
</style>
<path class="st0" d="M54.1,73.5c-0.4,0-0.8-0.1-1.1-0.4c-0.9-0.6-1.1-1.9-0.5-2.8c0.8-1.2,1.5-3.3,1.7-5.1c-0.2,0.1-0.4,0.1-0.6,0.2
	c-2.6,0.8-3.6,1.1-4.5,0c-0.5-0.6-0.6-1.5-0.3-2.2c1.5-3,2.1-8,1.1-10.9c-0.3-1.1,0.2-2.2,1.3-2.5c1.1-0.3,2.2,0.2,2.5,1.3
	c0.9,2.8,0.8,6.7,0,10.1c2-0.6,2.8-0.7,3.6-0.2c0.5,0.3,0.9,0.9,0.9,1.5c0.3,2.7-0.6,7.4-2.4,10.1C55.4,73.2,54.8,73.5,54.1,73.5z"
	/>
<path class="st0" d="M50.2,85H24c-8.5,0-12.2-4.8-12.9-9.2c-0.7-4.8,1.9-9.4,6.2-10.8c1.1-0.3,2.2,0.3,2.5,1.3s-0.3,2.2-1.3,2.5
	c-2.4,0.8-3.9,3.5-3.5,6.4C15.6,78.8,19,81,24,81h26.1c0.3,0,0.5-0.2,0.6-0.3c0.1-0.1,0.2-0.3,0.1-0.6c-0.2-0.5-0.5-1.1-1.9-1.1
	h-3.1c-1.5,0-3.2-0.9-3.9-2.1c-0.6-1-0.7-2.1-0.2-3.1c0.5-0.9,0.8-4.1-0.6-6.1c-1-1.3-2.6-1.8-4.9-1.4c-1.1,0.2-2.1-0.6-2.3-1.7
	c-0.2-1.1,0.6-2.1,1.7-2.3c4.9-0.7,7.5,1.2,8.8,3c2.1,3,2.1,7.2,1.2,9.6c0.1,0,0.2,0.1,0.2,0.1h3.1c2.7,0,4.7,1.3,5.6,3.7
	c0.5,1.4,0.4,3-0.5,4.3C53.1,84.2,51.7,85,50.2,85z"/>
<path class="st0" d="M65,85h-5.1c-1.1,0-2-0.9-2-2s0.9-2,2-2H65c0.3,0,0.5-0.2,0.6-0.3c0.1-0.1,0.2-0.3,0.1-0.6
	c-0.2-0.5-0.5-1.1-1.9-1.1h-0.2c-2,0-3.4-0.6-4.2-1.7c-1.5-2-0.8-4.8,0.1-8.3c1.1-4.5,2.7-10.6,0.6-17.2c-0.3-1.1,0.2-2.2,1.3-2.5
	c1.1-0.3,2.2,0.2,2.5,1.3c2.5,7.8,0.7,14.8-0.5,19.5c-0.5,1.8-1.1,4.3-0.8,4.9c0,0,0.3,0.1,1.1,0.1l0.2,0c2.7,0,4.7,1.3,5.6,3.7
	c0.5,1.4,0.4,3-0.5,4.3C68,84.2,66.5,85,65,85z"/>
<path class="st0" d="M63.3,19c-7-5.9-19.1-2.4-23.1-1.2c-3,0.9-5.6,1-7.6,1.1c-2,0.1-3.3,0.2-4.1,1c-1.5,1.5-2.1,4.1-1.6,6.8
	c0.5,2.9,2.2,5.2,4.4,6.2l0.3,0.1c2.9,1.3,9.8,4.4,10.7,7.9c0.3,1.2-1.8,3.1-4.1,5.4c-5.4,5.1-13.6,12.8-14.4,28.5
	c-0.1,1.1,0.8,2.1,1.9,2.1c0,0,0.1,0,0.1,0c1.1,0,1.9-0.8,2-1.9c0.8-14.1,7.9-20.9,13.2-25.8c3.4-3.2,6.1-5.8,5.3-9.2
	c-1.3-5.4-8.9-8.8-12.9-10.6l-0.3-0.1c-1-0.5-1.8-1.7-2.1-3.3c0-0.1,0-0.1,0-0.2c0.4,0.4,0.9,0.6,1.5,0.6c1.2,0,2.1-0.9,2.1-2.1
	c0-0.6-0.2-1.1-0.6-1.5c2-0.1,4.6-0.4,7.5-1.2c9.4-2.8,15.8-2.6,19.4,0.4c3.2,2.7,4.3,8,3.4,15.7c-0.3,2.5-1.9,4.8-3.4,5
	c-1.3,0.1-3.5-1.7-5.3-7.1c-0.4-1-1.5-1.6-2.5-1.2c-1,0.4-1.6,1.5-1.2,2.5c3,8.6,6.8,10.1,9.5,9.8c3.9-0.4,6.5-4.7,7-8.5
	C69.1,29.1,67.5,22.6,63.3,19z"/>
<path class="st0" d="M67.7,18.2c-0.5,0-1-0.2-1.3-0.5c-0.8-0.7-0.9-2-0.2-2.8l7.1-7.9c0.7-0.8,2-0.9,2.8-0.2c0.8,0.7,0.9,2,0.2,2.8
	l-7.1,7.9C68.8,18,68.3,18.2,67.7,18.2z"/>
<path class="st0" d="M71.3,23.1c-0.9,0-1.7-0.6-1.9-1.5c-0.3-1.1,0.3-2.2,1.4-2.5l9-2.5c1.1-0.3,2.2,0.3,2.5,1.4
	c0.3,1.1-0.3,2.2-1.4,2.5l-9,2.5C71.6,23,71.4,23.1,71.3,23.1z"/>
<path class="st0" d="M62.9,14.7c-0.1,0-0.2,0-0.3,0c-1.1-0.2-1.9-1.2-1.7-2.3l1.4-9.2c0.2-1.1,1.2-1.9,2.3-1.7
	c1.1,0.2,1.9,1.2,1.7,2.3L64.9,13C64.7,14,63.9,14.7,62.9,14.7z"/>
<circle class="st0" cx="47.6" cy="26.1" r="2.1"/>
</svg>
